<svg xmlns="http://www.w3.org/2000/svg" width="500" height="369" viewBox="0 0 500 369">
    <g fill="none" fill-rule="evenodd">
        <g fill-rule="nonzero">
            <g>
                <g>
                    <g transform="translate(-706 -2544) translate(236 2481) translate(470 63)">
                        <circle cx="260.246" cy="103.967" r="62.79" fill="#F5F5F5" transform="rotate(-45 260.246 103.967)"/>
                        <circle cx="260.25" cy="103.96" r="53.25" fill="#EBEBEB"/>
                        <path fill="#E6E6E6" d="M260.25 50.71c-.83 0-1.67 0-2.5.06 28.395 1.35 50.723 24.763 50.723 53.19 0 28.427-22.328 51.84-50.723 53.19.83 0 1.67.06 2.5.06 29.41 0 53.25-23.84 53.25-53.25s-23.84-53.25-53.25-53.25z"/>
                        <path fill="#FAFAFA" d="M260.27 157.15c1.35-.07 2.68-.19 4-.35V108h46.59c.1-1.32.16-2.65.16-4s-.06-2.68-.16-4h-46.61V51.13c-1.32-.17-2.65-.29-4-.36h-4V100h-49.18v8h49.18v49.19l4.02-.04z"/>
                        <path fill="#E6E6E6" d="M252.25 50.77H256.25V99.96000000000001H252.25zM252.25 107.96H256.25V157.14999999999998H252.25z"/>
                        <path fill="#F0F0F0" d="M78.4 194.86H147.57V320.59000000000003H78.4z" transform="rotate(180 112.985 257.725)"/>
                        <path fill="#E6E6E6" d="M58.83 194.86H78.4V320.59000000000003H58.83z" transform="rotate(180 68.615 257.725)"/>
                        <path fill="#FAFAFA" d="M85.05 204.99H140.38V238.14000000000001H85.05z" transform="rotate(180 112.715 221.565)"/>
                        <path fill="#FAFAFA" d="M85.05 241.75H140.38V274.9H85.05z" transform="rotate(180 112.715 258.325)"/>
                        <path fill="#FAFAFA" d="M85.05 278.52H140.38V311.66999999999996H85.05z" transform="rotate(180 112.715 295.095)"/>
                        <path fill="#E6E6E6" d="M85.05 327.4L139.31 327.4 140.38 320.57 85.05 320.57z"/>
                        <path fill="#E0E0E0" d="M66.73 327.4L85.05 327.4 85.05 320.57 65.65 320.57z"/>
                        <circle cx="113.61" cy="212.36" r="3.69" fill="#E0E0E0"/>
                        <circle cx="115.51" cy="212.36" r="3.69" fill="#F0F0F0"/>
                        <circle cx="113.61" cy="248.99" r="3.69" fill="#E0E0E0"/>
                        <circle cx="115.51" cy="248.99" r="3.69" fill="#F0F0F0"/>
                        <circle cx="113.61" cy="285.62" r="3.69" fill="#E0E0E0"/>
                        <circle cx="115.51" cy="285.62" r="3.69" fill="#F0F0F0"/>
                        <path fill="#EBEBEB" d="M416.78 343.49H449.9V344.49H416.78zM322.53 346.21H331.21999999999997V347.21H322.53zM396.59 334.21H415.78V335.21H396.59zM52.46 335.89H95.65V336.89H52.46zM104.56 335.89H110.89V336.89H104.56zM131.47 340.11H225.15V341.11H131.47zM237 282.8H43.92c-3.154 0-5.71-2.556-5.71-5.71V5.66C38.237 2.526 40.786 0 43.92 0H237c3.154 0 5.71 2.556 5.71 5.71v271.38c0 3.154-2.556 5.71-5.71 5.71zM43.92.2c-3.013.006-5.454 2.447-5.46 5.46v271.43c.006 3.013 2.447 5.454 5.46 5.46H237c3.013-.006 5.454-2.447 5.46-5.46V5.66C242.454 2.647 240.013.206 237 .2H43.92zM453.31 282.8h-193.1c-3.151-.006-5.704-2.559-5.71-5.71V5.66c.033-3.132 2.578-5.655 5.71-5.66h193.1c3.126.01 5.663 2.534 5.69 5.66v271.43c0 3.146-2.544 5.699-5.69 5.71zM260.21.2c-3.013.006-5.454 2.447-5.46 5.46v271.43c.006 3.013 2.447 5.454 5.46 5.46h193.1c3.013-.006 5.454-2.447 5.46-5.46V5.66c-.006-3.013-2.447-5.454-5.46-5.46h-193.1zM0 327.4H500V328.4H0z"/>
                    </g>
                    <g fill="#F5F5F5" transform="translate(-706 -2544) translate(236 2481) translate(470 63) translate(51 346)">
                        <ellipse cx="194.18" cy="11.39" rx="193.89" ry="11.32"/>
                    </g>
                    <g transform="translate(-706 -2544) translate(236 2481) translate(470 63) translate(262 42)">
                        <path fill="#A2A2A2" d="M124.33 6.59h-7.69c3.661-.038 7.174 1.45 9.694 4.105 2.521 2.656 3.824 6.24 3.596 9.895L117.68 254.2c-.487 7.811-6.924 13.92-14.75 14h7.69c7.828-.079 14.268-6.187 14.76-14l12.24-233.58c.24-3.66-1.058-7.255-3.58-9.918-2.523-2.663-6.042-4.153-9.71-4.113z"/>
                        <path fill="#FFF" d="M124.33 6.59h-7.69c3.661-.038 7.174 1.45 9.694 4.105 2.521 2.656 3.824 6.24 3.596 9.895L117.68 254.2c-.487 7.811-6.924 13.92-14.75 14h7.69c7.828-.079 14.268-6.187 14.76-14l12.24-233.58c.24-3.66-1.058-7.255-3.58-9.918-2.523-2.663-6.042-4.153-9.71-4.113z" opacity=".1"/>
                        <path fill="#A2A2A2" d="M108.33 268.22H14.11c-3.663.044-7.179-1.442-9.701-4.099-2.523-2.657-3.823-6.245-3.589-9.901L13.06 20.64c.52-7.8 6.944-13.892 14.76-14H122c3.661-.038 7.174 1.45 9.694 4.105 2.521 2.656 3.824 6.24 3.596 9.895L123.08 254.2c-.477 7.82-6.917 13.94-14.75 14.02z"/>
                        <path fill="#FFF" d="M108.33 268.22H14.11c-3.663.044-7.179-1.442-9.701-4.099-2.523-2.657-3.823-6.245-3.589-9.901L13.06 20.64c.52-7.8 6.944-13.892 14.76-14H122c3.661-.038 7.174 1.45 9.694 4.105 2.521 2.656 3.824 6.24 3.596 9.895L123.08 254.2c-.477 7.82-6.917 13.94-14.75 14.02z" opacity=".4"/>
                        <path fill="#407BFF" d="M64.05 2.06h15.69c.77 0 .87-1.2.1-1.2H64.16c-.77 0-.88 1.2-.11 1.2zM85.48 2.06H90c.77 0 .87-1.2.1-1.2h-4.5c-.78 0-.88 1.2-.11 1.2h-.01z"/>
                        <g fill="#FFF" opacity=".3">
                            <path d="M1.05 2.06h15.69c.77 0 .87-1.2.1-1.2H1.16c-.77 0-.88 1.2-.11 1.2z" transform="translate(63)"/>
                        </g>
                        <g fill="#FFF" opacity=".3">
                            <path d="M1.48 2.06H6c.77 0 .87-1.2.1-1.2H1.6c-.78 0-.88 1.2-.11 1.2h-.01z" transform="translate(84)"/>
                        </g>
                        <path fill="#F60" d="M28.15 11.09c-5.447.068-9.92 4.323-10.26 9.76L5.65 254.44c-.174 2.425.678 4.812 2.35 6.577 1.672 1.765 4.01 2.746 6.44 2.704h94.22c5.434-.063 9.905-4.298 10.26-9.721l12.25-233.58c.168-2.426-.688-4.812-2.36-6.577-1.673-1.766-4.008-2.75-6.44-2.713l-94.22-.04z"/>
                        <path fill="#FFF" d="M75.44 235.19c-.4 6.594-5.834 11.754-12.44 11.81-3.085.034-6.045-1.22-8.167-3.459-2.122-2.24-3.214-5.262-3.013-8.341.408-6.58 5.828-11.729 12.42-11.8 3.086-.037 6.047 1.214 8.173 3.451 2.125 2.238 3.222 5.26 3.027 8.339z"/>
                        <path fill="#ED5B5B" d="M70.93 234.12c-3.48-2.43-10.73-2.43-14.47 0-1.375.24-2.403 1.396-2.48 2.79-.08 1.57 6.43 1.57 6.51 0 .035-.64-.16-1.272-.55-1.78 2.443-.52 4.967-.52 7.41 0-.442.492-.703 1.12-.74 1.78-.08 1.57 6.43 1.57 6.51 0 .082-1.35-.859-2.55-2.19-2.79z"/>
                        <path fill="#000" d="M70.93 234.12c-3.48-2.43-10.73-2.43-14.47 0-1.375.24-2.403 1.396-2.48 2.79-.08 1.57 6.43 1.57 6.51 0 .035-.64-.16-1.272-.55-1.78 2.443-.52 4.967-.52 7.41 0-.442.492-.703 1.12-.74 1.78-.08 1.57 6.43 1.57 6.51 0 .082-1.35-.859-2.55-2.19-2.79z" opacity=".2"/>
                        <path fill="#FFF" d="M63.28 97.61c0 .88-.65 1.39-1.65 1.39-.628.078-1.231-.269-1.48-.85v-.13l-.69.4v.1c.373.83 1.234 1.329 2.14 1.24.618.064 1.236-.13 1.706-.538.47-.407.75-.99.774-1.612l.28-5.2h-.79l-.29 5.2zM67.89 94.29c-1.526.002-2.79 1.187-2.89 2.71-.051.717.203 1.423.7 1.943.497.52 1.191.806 1.91.787 1.532-.003 2.795-1.2 2.88-2.73.045-.712-.21-1.41-.705-1.926-.494-.515-1.181-.8-1.895-.784zm-.25 4.74c-.523.01-1.026-.201-1.384-.583-.358-.38-.539-.896-.496-1.417.053-1.117.972-1.996 2.09-2 .523-.01 1.026.201 1.384.583.358.38.539.896.496 1.417-.069 1.105-.983 1.967-2.09 1.97v.03zM74 94.29c-.653-.02-1.28.26-1.7.76l.14-2.64h-.75l-.38 7.24h.75l.14-2.76c.06-1.17.71-1.87 1.72-1.87.37-.03.733.112.983.386s.36.648.297 1.014l-.17 3.23h.76l.17-3.23c.083-.556-.09-1.12-.471-1.533-.38-.414-.928-.633-1.489-.597zM79.64 94.29c-.653-.02-1.28.26-1.7.76v-.65h-.75l-.27 5.25h.75l.14-2.76c.06-1.17.71-1.87 1.72-1.87.37-.03.733.112.983.386s.36.648.297 1.014l-.17 3.23h.76l.17-3.23c.081-.55-.088-1.109-.462-1.521-.373-.413-.912-.636-1.468-.609z"/>
                        <ellipse cx="72.305" cy="62.951" fill="#FFF" rx="22" ry="20.88" transform="rotate(-44.25 72.305 62.951)"/>
                        <ellipse cx="72.315" cy="62.961" fill="#471D87" rx="20.32" ry="19.28" transform="rotate(-44.25 72.315 62.961)"/>
                        <ellipse cx="72.315" cy="62.961" fill="#FFF" opacity=".374" rx="20.32" ry="19.28" transform="rotate(-44.25 72.315 62.961)"/>
                        <path fill="#FFF" d="M71.27 82.75c6.777-.062 13.108-3.391 17-8.94-4.38-3.76-13.48-.2-18.32.91-3.68.85-6.51 3.55-8.17 5.55 2.892 1.643 6.164 2.498 9.49 2.48z" opacity=".7"/>
                        <path fill="#263238" d="M66.22 53.51s-5.64-1.74-8.26 2.79l4.22-.89s-3.39 2.3-.14 8c0 0-.85-5 2.84-6s1.34-3.9 1.34-3.9z"/>
                        <path fill="#000" d="M66.22 53.51s-5.64-1.74-8.26 2.79l4.22-.89s-3.39 2.3-.14 8c0 0-.85-5 2.84-6s1.34-3.9 1.34-3.9z" opacity=".3"/>
                        <path fill="#FAB27B" d="M68.8 77.47c.136-.932.576-1.793 1.25-2.45.033-.867-.244-1.718-.78-2.4l8.06-6.43c.3 3.23.55 5.78 2.17 6.76-1.41 1.78-4 5-7.58 6.29s-3.27-.31-3.12-1.77z"/>
                        <path fill="#000" d="M70 74.68c5.15-.8 6.51-6.57 6.51-6.57l-4.77 2.52-2.5 2c.46.588.725 1.305.76 2.05z" opacity=".1"/>
                        <path fill="#FAB27B" d="M77.67 58.74c.31 4.89.4 8.23-2.34 10.93-5.46 5.38-9.37 3.53-11.26-1-1.68-4.1-1.9-11.41 2.94-14.41s10.35-.42 10.66 4.48z"/>
                        <path fill="#263238" d="M67.68 61.83c-.07-.42.11-.81.38-.87.27-.06.56.24.63.66.07.42-.1.81-.38.87-.28.06-.56-.24-.63-.66zM64.31 62.63c.07.42-.11.81-.36.85-.25.04-.56-.24-.62-.66-.06-.42.1-.81.36-.85.26-.04.56.24.62.66z"/>
                        <path fill="#DA6309" d="M65.83 62.67l.58 3.53c-.398.167-.82.272-1.25.31-.124.006-.244-.04-.332-.128-.087-.088-.134-.208-.128-.332 0-.097.032-.192.09-.27.536-.964.888-2.018 1.04-3.11z"/>
                        <path fill="#263238" d="M70.79 60c.042-.002.081-.02.11-.05.048-.044.075-.105.075-.17 0-.065-.027-.126-.075-.17-.587-.562-1.416-.794-2.21-.62-.136.03-.225.163-.2.3.039.128.169.206.3.18.628-.118 1.275.072 1.74.51.073.063.178.07.26.02zM62.44 61.83c.083-.023.153-.082.19-.16.245-.61.758-1.071 1.39-1.25.135-.034.224-.162.21-.3-.03-.132-.156-.219-.29-.2-.802.22-1.457.8-1.77 1.57-.031.055-.038.121-.02.182.02.06.063.11.12.138.053.024.113.03.17.02zM64.88 68.19c2.157-.87 4.39-1.54 6.67-2-.279 1.913-1.794 3.407-3.71 3.66-.579.21-1.219.173-1.77-.103-.55-.276-.963-.767-1.14-1.357-.02-.06-.03-.13-.05-.2z"/>
                        <path fill="#A02724" d="M68.79 68.4c-.999.184-1.919.665-2.64 1.38.541.19 1.127.21 1.68.06.996-.177 1.914-.655 2.63-1.37-.536-.198-1.12-.223-1.67-.07z"/>
                        <path fill="#FFF" d="M65.1 68.1c.174.346.533.56.92.55 1.477-.364 2.924-.84 4.33-1.42.474-.154.846-.526 1-1-2.127.468-4.216 1.093-6.25 1.87z"/>
                        <path fill="#263238" d="M76.66 64.82s-6.27-3.37-2.77-7.39c3.5-4.02 6.72.53 6.14 3.53-.377 1.785-1.652 3.246-3.37 3.86z"/>
                        <path fill="#000" d="M76.66 64.82s-6.27-3.37-2.77-7.39c3.5-4.02 6.72.53 6.14 3.53-.377 1.785-1.652 3.246-3.37 3.86z" opacity=".2"/>
                        <path fill="#FAB27B" d="M80.41 63.52c-.544 1.244-1.536 2.236-2.78 2.78-1.65.71-2.64-.68-2.32-2.32.29-1.49 1.5-3.64 3.22-3.65.593.004 1.158.254 1.56.69.401.436.604 1.019.56 1.61-.02.31-.101.612-.24.89z"/>
                        <path fill="#263238" d="M69.13 49.71s-7-2.61-7.29 2.78c-.29 5.39 9.89 7.69 13.64 7.51 3.75-.18 5.33 1 5.33 1s.27-4.41-.88-6.2-1.55-7.35-10.8-5.09z"/>
                        <path fill="#FFF" d="M59.07 28.54c.06-1.637 1.422-2.924 3.06-2.89.97-.028 1.872.495 2.33 1.35l-.38.21c-.389-.737-1.167-1.185-2-1.15-1.4-.023-2.561 1.08-2.61 2.48-.061.652.162 1.298.612 1.773.45.475 1.084.733 1.738.707.86.01 1.66-.44 2.1-1.18l.37.22c-.537.857-1.479 1.375-2.49 1.37-.758.02-1.49-.284-2.01-.836-.521-.551-.783-1.298-.72-2.054zM69.27 27.34l-.21 4h-.41l.05-.9c-.373.622-1.045 1.001-1.77 1-.552.019-1.086-.199-1.468-.598-.381-.399-.575-.941-.532-1.492.058-1.164 1.014-2.08 2.18-2.09.7-.018 1.349.372 1.66 1l.05-.9.45-.02zm-.51 2c.034-.443-.12-.88-.425-1.203-.304-.324-.73-.504-1.175-.497-.952.004-1.737.749-1.79 1.7-.023.442.14.872.45 1.188.31.315.738.487 1.18.472.928-.013 1.693-.734 1.76-1.66zM70.6 25.5L71 25.5 70.69 31.34 70.29 31.34zM72.23 25.5L72.63 25.5 72.32 31.34 71.92 31.34zM73.71 26.05c.02-.174.165-.306.34-.31.081 0 .16.033.216.091.056.059.087.138.084.219-.01.176-.154.315-.33.32-.085.003-.167-.03-.226-.091-.06-.061-.09-.144-.084-.229zm.06 1.29h.4l-.21 4h-.4l.21-4zM78.7 28.85l-.13 2.49h-.41l.13-2.49c.072-.32-.017-.654-.239-.895-.221-.241-.547-.359-.871-.315-.413-.004-.81.166-1.09.468-.283.303-.424.71-.39 1.122l-.11 2.11h-.4l.21-4h.4v.76c.287-.541.858-.872 1.47-.85.415-.017.816.153 1.093.463.276.31.4.726.337 1.137zM83.86 27.34l-.2 3.81c-.065 1.093-.996 1.931-2.09 1.88-.76.07-1.486-.324-1.84-1l.37-.2c.28.55.88.859 1.49.77.423.042.845-.095 1.162-.378.317-.284.502-.687.508-1.112v-.74c-.364.63-1.042 1.014-1.77 1-.553.022-1.089-.194-1.471-.594-.383-.4-.575-.945-.529-1.496.053-1.166 1.012-2.086 2.18-2.09.703-.026 1.355.366 1.66 1v-.93l.53.08zm-.51 2c.034-.443-.12-.88-.425-1.203-.304-.324-.73-.504-1.175-.497-.952.004-1.737.749-1.79 1.7-.034.445.122.883.428 1.207.307.324.736.503 1.182.493.95-.004 1.732-.75 1.78-1.7zM84.78 31.06c.01-.202.178-.36.38-.36.094 0 .183.038.248.107.064.068.098.16.092.253-.01.202-.178.36-.38.36-.095.003-.186-.034-.251-.103-.065-.07-.098-.163-.089-.257zM86.48 31.06c.01-.202.178-.36.38-.36.094 0 .183.038.248.107.064.068.098.16.092.253-.01.202-.178.36-.38.36-.094 0-.183-.038-.248-.107-.064-.068-.098-.16-.092-.253zM88.19 31.06c.01-.202.178-.36.38-.36.094 0 .183.038.248.107.064.068.098.16.092.253-.01.202-.178.36-.38.36-.095.003-.186-.034-.251-.103-.065-.07-.098-.163-.089-.257zM26.05 155.86h-1.11l-.07 1.44h-.27l.18-3.5h1.39c.552 0 1 .448 1 1-.032.477-.367.88-.83 1l.8 1.47h-.31l-.78-1.41zm-1.1-.25h1.12c.434-.005.789-.347.81-.78.014-.202-.057-.4-.195-.549-.139-.148-.332-.231-.535-.231H25l-.05 1.56zM29.92 156.06v.12h-2.27c.032.529.47.941 1 .94.358.017.697-.158.89-.46l.21.13c-.25.37-.674.585-1.12.57-.346.016-.682-.119-.92-.37-.239-.252-.355-.595-.32-.94.005-.355.152-.692.407-.938.256-.246.599-.38.953-.372.336.004.655.15.878.4.223.252.329.586.292.92zm-2.27-.13h2c.026-.258-.06-.515-.236-.706-.176-.191-.424-.298-.684-.294-.567-.002-1.038.435-1.08 1zM30.33 156.05c.032-.74.648-1.322 1.39-1.31.43-.003.822.248 1 .64l-.21.12c-.156-.33-.495-.535-.86-.52-.598 0-1.088.473-1.11 1.07-.02.277.077.55.267.753.19.203.455.318.733.317.382.002.737-.2.93-.53l.2.13c-.24.4-.674.643-1.14.64-.337-.002-.659-.144-.886-.393-.228-.248-.342-.58-.314-.917zM33.11 156.05c.042-.736.653-1.311 1.39-1.31.343-.007.673.132.91.381.235.25.355.587.33.929-.042.732-.646 1.306-1.38 1.31-.345.01-.678-.128-.916-.377-.238-.25-.36-.589-.334-.933zm2.37 0c.02-.277-.077-.55-.267-.753-.19-.203-.455-.318-.733-.317-.596.005-1.083.475-1.11 1.07-.02.277.077.55.267.753.19.203.455.318.733.317.596-.005 1.083-.475 1.11-1.07zM37.49 154.76v.24c-.241-.006-.474.089-.643.261-.169.173-.258.408-.247.649l-.07 1.39h-.25l.13-2.5h.25v.49c.145-.328.472-.536.83-.53zM40.35 153.8l-.18 3.5h-.25v-.58c-.23.395-.653.638-1.11.64-.342.007-.672-.132-.906-.382-.235-.25-.352-.587-.324-.928.037-.73.638-1.306 1.37-1.31.428.005.816.253 1 .64l.08-1.58h.32zm-.37 2.25c.02-.277-.077-.55-.267-.753-.19-.203-.455-.318-.733-.317-.6 0-1.093.471-1.12 1.07-.02.277.077.55.267.753.19.203.455.318.733.317.605.006 1.108-.466 1.14-1.07h-.02z"/>
                        <g fill="#FFF" opacity=".6">
                            <path d="M3.49.8L3.31 4.3 3 4.3 3.09 2.62 1.09 2.62 1 4.3.73 4.3.92.8 1.18.8 1.1 2.37 3.1 2.37 3.18.8zM4 3.05c.042-.736.653-1.311 1.39-1.31.343-.007.673.132.91.381.235.25.355.587.33.929-.037.735-.644 1.31-1.38 1.31-.345.01-.678-.128-.916-.377-.238-.25-.36-.589-.334-.933zm2.37 0c.02-.277-.077-.55-.267-.753-.19-.203-.455-.318-.733-.317-.596.005-1.083.475-1.11 1.07-.02.277.077.55.267.753.19.203.455.318.733.317.603.006 1.103-.467 1.13-1.07h-.02zM7.37.65L7.62.65 7.43 4.3 7.18 4.3zM10.84.8l-.18 3.5h-.25v-.58c-.229.396-.652.64-1.11.64-.342.007-.672-.132-.906-.382-.235-.25-.352-.587-.324-.928.037-.73.638-1.306 1.37-1.31.429.002.818.251 1 .64L10.52.8h.32zm-.36 2.25c.02-.277-.077-.55-.267-.753-.19-.203-.455-.318-.733-.317-.6 0-1.093.471-1.12 1.07-.02.277.077.55.267.753.19.203.455.318.733.317.596-.01 1.084-.476 1.12-1.07zM12.66 3.05c.032-.737.642-1.316 1.38-1.31.45-.022.87.231 1.06.64l-.21.12c-.166-.333-.519-.531-.89-.5-.602-.006-1.098.469-1.12 1.07-.02.277.077.55.267.753.19.203.455.318.733.317.381-.002.734-.203.93-.53l.2.13c-.24.4-.674.643-1.14.64-.343.002-.67-.142-.901-.396-.23-.253-.343-.593-.309-.934zM18.13 1.8L18 4.3h-.26v-.57c-.227.393-.647.633-1.1.63-.342.004-.669-.136-.903-.385-.234-.249-.352-.584-.327-.925.037-.727.632-1.3 1.36-1.31.44-.011.847.23 1.05.62V1.8h.31zm-.32 1.25c.02-.277-.077-.55-.267-.753-.19-.203-.455-.318-.733-.317-.6 0-1.093.471-1.12 1.07-.02.277.077.55.267.753.19.203.455.318.733.317.598-.004 1.088-.473 1.12-1.07zM19 .65L19.25.65 19 4.3 18.75 4.3zM20 .65L20.25.65 20 4.3 19.75 4.3z" transform="translate(57 153)"/>
                        </g>
                        <path fill="#FFF" d="M94.31 156.34c0 .552-.448 1-1 1H91.8l.18-3.5h1.4c.24-.003.472.094.637.269.165.175.25.411.233.651-.01.324-.199.616-.49.76.338.13.557.458.55.82zm-2.08-2.29l-.07 1.34h1.13c.37-.01.67-.301.69-.67.014-.173-.045-.344-.163-.471-.118-.127-.284-.2-.457-.199h-1.13zm1.81 2.29c.014-.18-.048-.36-.172-.492-.123-.133-.297-.209-.478-.208h-1.25l-.07 1.41h1.24c.376-.03.671-.334.69-.71h.04zM95.05 153.65L95.3 153.65 95.11 157.3 94.85 157.3zM98.06 154.8l-.13 2.5h-.25v-.48c-.177.342-.535.552-.92.54-.264.018-.521-.084-.7-.279-.18-.194-.26-.46-.22-.721l.08-1.55h.26l-.09 1.55c-.034.2.025.405.162.556.137.15.335.23.538.214.26 0 .507-.107.684-.297.176-.19.266-.444.246-.703l.07-1.32.27-.01zM101.12 156.06v.12h-2.27c.032.529.47.941 1 .94.358.017.697-.158.89-.46l.21.13c-.252.368-.674.583-1.12.57-.347.016-.684-.12-.923-.37-.24-.252-.36-.594-.327-.94.016-.736.624-1.321 1.36-1.31.34-.006.665.137.892.39.226.253.332.593.288.93zm-2.26-.13h2c.023-.26-.066-.516-.243-.707-.177-.19-.427-.297-.687-.293-.565-.001-1.033.437-1.07 1zM102.22 155l-.09 1.63c0 .44.21.45.73.41v.22c-.67.1-1-.06-1-.63L102 155h-.55v-.24h.55v-.63l.26-.07v.7h.74v.24h-.78zM103.19 156.05c.037-.735.644-1.31 1.38-1.31.345-.01.678.128.916.377.238.25.36.589.334.933-.042.732-.646 1.306-1.38 1.31-.345.01-.678-.128-.916-.377-.238-.25-.36-.589-.334-.933zm2.37 0c.02-.277-.077-.55-.267-.753-.19-.203-.455-.318-.733-.317-.596.01-1.084.476-1.12 1.07-.02.277.077.55.267.753.19.203.455.318.733.317.6 0 1.093-.471 1.12-1.07zM106.24 156.05c.042-.736.653-1.311 1.39-1.31.343-.007.673.132.91.381.235.25.355.587.33.929-.037.735-.644 1.31-1.38 1.31-.344.006-.675-.132-.912-.38-.238-.25-.36-.587-.338-.93zm2.38 0c.02-.277-.077-.55-.267-.753-.19-.203-.455-.318-.733-.317-.6 0-1.093.471-1.12 1.07-.02.277.077.55.267.753.19.203.455.318.733.317.598-.004 1.088-.473 1.12-1.07zM110 155l-.09 1.63c0 .44.22.45.73.41v.22c-.66.1-1-.06-1-.63l.08-1.63h-.55v-.24h.55v-.63l.26-.07v.7h.75v.24H110zM113.43 155.74l-.08 1.56h-.25l.08-1.56c.031-.199-.03-.4-.167-.549-.136-.148-.332-.226-.533-.211-.26 0-.507.107-.684.297-.176.19-.266.444-.246.703l-.07 1.32h-.25l.19-3.5h.25l-.08 1.47c.181-.342.544-.548.93-.53.262-.015.517.089.693.283.177.194.257.458.217.717zM21.09 195.76l.23-.13c.116.447.54.744 1 .7.58 0 .89-.3.91-.7.02-.4-.34-.58-.86-.75-.52-.17-1.09-.36-1.06-1 .015-.275.142-.531.352-.71.21-.177.484-.26.758-.23.486-.019.928.281 1.09.74l-.24.12c-.118-.376-.477-.623-.87-.6-.198-.022-.397.036-.551.162-.154.126-.251.31-.269.508 0 .42.32.55.82.72.5.17 1.14.4 1.1 1-.014.297-.152.574-.38.764-.228.19-.526.276-.82.236-.548.042-1.052-.303-1.21-.83zM26.76 195.28c-.037.727-.632 1.3-1.36 1.31-.43 0-.82-.25-1-.64l-.09 1.58H24l.19-3.5h.25v.58c.224-.401.65-.647 1.11-.64.339-.001.663.14.893.389.23.249.345.583.317.921zm-.25 0c.02-.277-.077-.55-.267-.753-.19-.203-.455-.318-.733-.317-.6 0-1.093.471-1.12 1.07-.02.277.077.55.267.753.19.203.455.318.733.317.6 0 1.093-.471 1.12-1.07zM29.73 195.29v.12h-2.27c.032.529.47.941 1 .94.358.017.697-.158.89-.46l.21.13c-.25.37-.674.585-1.12.57-.347.02-.685-.114-.924-.367-.24-.252-.355-.597-.316-.943.005-.355.152-.692.407-.938.256-.246.599-.38.953-.372.336.004.655.15.878.4.223.252.329.586.292.92zm-2.27-.12h2c.026-.258-.06-.515-.236-.706-.176-.191-.424-.298-.684-.294-.567-.002-1.038.435-1.08 1zM32.83 194l-.13 2.5h-.25v-.56c-.235.387-.657.623-1.11.62-.342.004-.669-.136-.903-.385-.234-.249-.352-.584-.327-.925.068-.715.672-1.258 1.39-1.25.44-.014.85.228 1.05.62v-.56l.28-.06zm-.32 1.25c.02-.277-.077-.55-.267-.753-.19-.203-.455-.318-.733-.317-.596.005-1.083.475-1.11 1.07-.02.277.077.55.267.753.19.203.455.318.733.317.587.001 1.073-.454 1.11-1.04v-.03zM35.05 196.53L33.78 195.3 33.72 196.53 33.47 196.53 33.65 193.03 33.9 193.03 33.79 195.17 35.12 194.03 35.47 194.03 34.06 195.23 35.39 196.53zM38.06 195.29v.12h-2.27c.032.529.47.941 1 .94.358.017.697-.158.89-.46l.21.13c-.252.368-.674.583-1.12.57-.348.02-.687-.115-.927-.367s-.359-.596-.323-.943c.038-.73.65-1.297 1.38-1.28.33.001.645.142.866.388.221.245.328.573.294.902zm-2.26-.12h2c.023-.26-.066-.516-.243-.707-.177-.19-.427-.297-.687-.293-.565-.001-1.033.437-1.07 1zM39.8 194v.24c-.241-.006-.474.089-.643.261-.169.173-.258.408-.247.649l-.07 1.39h-.25l.13-2.5H39v.49c.14-.318.453-.525.8-.53z"/>
                        <g fill="#FFF" opacity=".6">
                            <path d="M3.15 3.53L2.88 3.53 3.04.42 1.64 2.57 1.59 2.57.41.42.24 3.53 0 3.53.18.03.51.03 1.66 2.1 3 0 3.34 0zM6.15 1l-.13 2.5h-.25v-.47c-.18.338-.537.544-.92.53-.264.018-.521-.084-.7-.279-.18-.194-.26-.46-.22-.721L4 1h.26l-.09 1.56c-.031.199.03.4.167.549.136.148.332.226.533.211.26 0 .507-.107.684-.297.176-.19.266-.444.246-.703L5.87 1h.28zM7.44 1.27L7.35 2.9c0 .44.21.45.73.41v.22c-.66.1-1-.06-1-.63l.08-1.63h-.55V1h.55V.37L7.42.3V1h.75v.24l-.73.03zM10.94 2.29v.12H8.67c.032.529.47.941 1 .94.358.017.697-.158.89-.46l.22.13c-.254.366-.675.58-1.12.57-.348.02-.687-.115-.927-.367s-.359-.596-.323-.943c.016-.736.624-1.321 1.36-1.31.337 0 .658.145.881.397.224.253.329.588.289.923zm-2.26-.12h2c.023-.26-.066-.516-.243-.707-.177-.19-.427-.297-.687-.293-.565-.001-1.033.437-1.07 1z" transform="translate(60 193)"/>
                        </g>
                        <path fill="#FFF" d="M94.06 196.53L92.39 194.8 92.3 196.53 92 196.53 92.18 193.03 92.45 193.03 92.36 194.66 94.15 193.03 94.51 193.03 92.65 194.73 94.38 196.53zM97.05 195.29v.12h-2.27c.032.529.47.941 1 .94.358.017.697-.158.89-.46l.22.13c-.254.366-.675.58-1.12.57-.348.02-.687-.115-.927-.367s-.359-.596-.323-.943c.016-.736.624-1.321 1.36-1.31.337 0 .658.145.881.397.224.253.329.588.289.923zm-2.26-.12h2c.023-.26-.066-.516-.243-.707-.177-.19-.427-.297-.687-.293-.565-.001-1.033.437-1.07 1zM99.7 194l-1.22 2.73c-.14.44-.539.746-1 .77v-.23c.33 0 .6-.22.78-.59l.06-.13-1-2.55h.27l.89 2.23 1-2.23h.22zM102.71 195.28c-.037.73-.638 1.306-1.37 1.31-.429-.002-.818-.251-1-.64l-.08 1.58H100l.18-3.5h.25v.58c.226-.4.651-.645 1.11-.64.331.013.643.16.863.406.221.247.332.574.307.904zm-.25 0c.02-.277-.077-.55-.267-.753-.19-.203-.455-.318-.733-.317-.596.01-1.084.476-1.12 1.07-.02.277.077.55.267.753.19.203.455.318.733.317.6 0 1.093-.471 1.12-1.07zM105.83 194l-.13 2.5h-.25v-.56c-.235.387-.657.623-1.11.62-.342.004-.669-.136-.903-.385-.234-.249-.352-.584-.327-.925.068-.715.672-1.258 1.39-1.25.44-.011.847.23 1.05.62v-.56l.28-.06zm-.32 1.25c.02-.277-.077-.55-.267-.753-.19-.203-.455-.318-.733-.317-.596.01-1.084.476-1.12 1.07-.02.277.077.55.267.753.19.203.455.318.733.317.59.006 1.083-.45 1.12-1.04v-.03zM109.11 193l-.18 3.5h-.25v-.58c-.227.398-.652.643-1.11.64-.342.007-.672-.132-.906-.382-.235-.25-.352-.587-.324-.928.037-.727.632-1.3 1.36-1.31.428.005.816.253 1 .64l.08-1.58h.33zm-.37 2.25c.02-.277-.077-.55-.267-.753-.19-.203-.455-.318-.733-.317-.6 0-1.093.471-1.12 1.07-.02.277.077.55.267.753.19.203.455.318.733.317.589.002 1.078-.453 1.12-1.04v-.03zM31.05 145.79c-.627.004-1.143.494-1.18 1.12-.023.296.08.587.285.802.203.215.489.335.785.328.63-.004 1.148-.5 1.18-1.13.037-.298-.062-.597-.27-.814-.207-.217-.5-.33-.8-.306zM35.14 145.79c-.627.004-1.143.494-1.18 1.12-.01.284.094.56.29.765.195.205.466.323.75.325.63-.004 1.148-.5 1.18-1.13.023-.286-.077-.568-.276-.775-.2-.206-.477-.317-.764-.305z"/>
                        <path fill="#FFF" d="M37.47 143.64H29c-.478 0-.873.373-.9.85l-.26 4.85c-.014.222.066.44.22.602.153.161.367.251.59.248h8.51c.478 0 .873-.373.9-.85l.26-4.85c.015-.23-.07-.455-.233-.617-.162-.163-.387-.248-.617-.233zM35 148.69h-4.1c-.464.004-.91-.186-1.228-.524-.319-.337-.483-.793-.452-1.256.068-.987.881-1.757 1.87-1.77.463-.004.906.185 1.224.52.319.336.484.788.456 1.25-.026.42-.195.82-.48 1.13h1.38c-.253-.32-.38-.722-.36-1.13.068-.987.881-1.757 1.87-1.77.463-.004.906.185 1.224.52.319.336.484.788.456 1.25-.062.987-.871 1.761-1.86 1.78zM106 145.19l-3.45-2.35-.18 3.45-2-1.38-.4.56 2.12 1.44-2.27 1.45.34.56 2.18-1.38-.18 3.45 3.69-2.35-2.53-1.73 2.68-1.72zm-2.84-1.1l1.62 1.1-1.73 1.1.11-2.2zm-.29 5.64l.11-2.19 1.61 1.1-1.72 1.09z"/>
                        <g fill="#FFF" opacity=".6">
                            <path d="M.02 7.35L1.02 7.35 1.38.47.38.47zM4.19.47L3.82 7.35 4.82 7.35 5.19.47z" transform="translate(66 143)"/>
                        </g>
                        <path fill="#FFF" d="M30.7 182.94l-2.14 1.82H26.7l-.14 2.68h1.86l1.95 1.83c.089.069.21.078.307.023.098-.054.154-.162.143-.273l.3-5.84c.03-.11-.019-.226-.117-.282-.1-.057-.223-.04-.303.042zM32.22 184.33c.901 1.038.817 2.604-.19 3.54-.34.36.16.89.5.53 1.302-1.219 1.412-3.247.25-4.6-.31-.36-.87.17-.56.53z"/>
                        <path fill="#FFF" d="M33.31 182.42c1.871 2.159 1.699 5.411-.39 7.36-.34.36.16.89.5.54 2.384-2.236 2.583-5.953.45-8.43-.31-.36-.87.17-.56.53z"/>
                        <g fill="#FFF" opacity=".6">
                            <path d="M7.56 6.43c.257-.478.42-1 .48-1.54.06-.58-.84-.57-.9 0-.036.296-.114.585-.23.86l.65.68zM6.52 6.46C5.09 8.24 1.75 7.73 1.74 4.89c0-.249-.201-.45-.45-.45s-.45.201-.45.45c-.048 1.505.87 2.873 2.28 3.4l-.05 1.12h2.27l.06-1.13c.672-.224 1.266-.637 1.71-1.19l-.59-.63zM3.53 2.19c.222-.39.631-.636 1.08-.65.315-.006.618.12.835.348.217.229.328.538.305.852l-.09 1.69.66.69c.042-.143.069-.29.08-.44l.1-1.94c.034-.51-.147-1.01-.498-1.38C5.65.99 5.16.783 4.65.79c-.65.002-1.257.319-1.63.85l.51.55z" transform="translate(62 181)"/>
                            <path d="M5.94 5.84l-.52-.54-2.08-2.19-.67-.71-1.1-1.17-.56.53 1.58 1.67-.07 1.24c-.03.509.151 1.007.502 1.376.35.37.839.578 1.348.574.351 0 .696-.094 1-.27l2.24 2.36.56-.54-2.2-2.32-.03-.01zm-1.55 0c-.313 0-.612-.128-.828-.355-.216-.227-.328-.532-.312-.845v-.49l1.52 1.61c-.12.058-.248.098-.38.12v-.04z" transform="translate(62 181)"/>
                        </g>
                        <path fill="#FFF" d="M98.89 182c-.314.01-.57.256-.59.57-.011.146.04.29.14.398.102.106.243.165.39.162.316 0 .579-.244.6-.56.008-.148-.045-.294-.147-.401-.102-.108-.244-.17-.393-.169zM98.77 184.36c-.314 0-.574.246-.59.56-.011.147.04.293.14.4.101.11.242.17.39.17.316-.005.574-.254.59-.57.011-.146-.04-.29-.14-.398-.102-.106-.243-.165-.39-.162zM98.65 186.71c-.318.005-.58.253-.6.57-.005.147.049.29.15.395.103.105.243.165.39.165.313-.005.57-.248.59-.56.011-.147-.04-.293-.14-.4-.101-.11-.242-.17-.39-.17zM101.08 182c-.316.005-.574.254-.59.57-.011.146.04.29.14.398.102.106.243.165.39.162.314-.004.574-.247.6-.56.008-.148-.045-.294-.147-.401-.102-.108-.244-.17-.393-.169zM101 184.36c-.314.004-.574.247-.6.56-.008.148.045.294.147.401.102.108.244.17.393.169.316-.005.574-.254.59-.57.011-.146-.04-.29-.14-.398-.102-.106-.243-.165-.39-.162zM100.83 186.71c-.314.01-.57.256-.59.57-.008.147.045.292.148.398.102.106.244.165.392.162.313-.005.57-.248.59-.56.011-.15-.04-.296-.144-.405-.103-.108-.246-.168-.396-.165zM100.71 189.07c-.314 0-.574.246-.59.56-.011.147.04.293.14.4.101.11.242.17.39.17.316-.01.575-.255.6-.57.005-.147-.049-.29-.15-.395-.103-.105-.243-.165-.39-.165zM103.21 183.13c.314 0 .574-.246.59-.56.011-.147-.04-.293-.14-.4-.101-.11-.242-.17-.39-.17-.316.005-.574.254-.59.57-.011.146.04.29.14.398.102.106.243.165.39.162zM103.15 184.36c-.314.004-.574.247-.6.56-.008.148.045.294.147.401.102.108.244.17.393.169.316-.005.574-.254.59-.57.011-.146-.04-.29-.14-.398-.102-.106-.243-.165-.39-.162zM103 186.71c-.314.01-.57.256-.59.57-.011.146.04.29.14.398.102.106.243.165.39.162.316 0 .579-.244.6-.56.008-.148-.045-.294-.147-.401-.102-.108-.244-.17-.393-.169z"/>
                        <g fill="#FFF" opacity=".1">
                            <path d="M13.8 252.72h37.57L38.06.09H7.82c-2.694.022-5.272 1.099-7.18 3L13.8 252.72zM58.12 252.72L66.57 252.72 53.26.09 44.81.09z" transform="translate(20 11)"/>
                        </g>
                    </g>
                    <g transform="translate(-706 -2544) translate(236 2481) translate(470 63) translate(100 110)">
                        <path fill="#A2A2A2" d="M102.17 204h20.5l-10.77-87.77c-.537-3.79-3.734-6.636-7.56-6.73H14.89L28 204h74.17z"/>
                        <path fill="#FFF" d="M102.17 204h20.5l-10.77-87.77c-.537-3.79-3.734-6.636-7.56-6.73H14.89L28 204h74.17z" opacity=".1"/>
                        <path fill="#A2A2A2" d="M37.16 204h-20.5L5.88 116.23c-.267-1.707.237-3.445 1.376-4.745 1.14-1.3 2.796-2.027 4.524-1.985h7c3.822.099 7.014 2.944 7.55 6.73L37.16 204z"/>
                        <path fill="#000" d="M37.16 204h-20.5L5.88 116.23c-.267-1.707.237-3.445 1.376-4.745 1.14-1.3 2.796-2.027 4.524-1.985h7c3.822.099 7.014 2.944 7.55 6.73L37.16 204z" opacity=".2"/>
                        <path fill="#A2A2A2" d="M49.24 215.86l-3.71-42.45c-.15-1.904-1.623-3.437-3.52-3.66l-1.53-.2c-2.534-.32-4.5-2.366-4.72-4.91l-.68-7.74c-.129-1.515.383-3.016 1.411-4.137 1.028-1.12 2.478-1.76 3.999-1.763H6.23c-1.52.003-2.971.642-3.999 1.763S.691 155.385.82 156.9l.68 7.74c.22 2.544 2.186 4.59 4.72 4.91l1.53.2c1.897.223 3.37 1.756 3.52 3.66L15 215.86c.275 3.105 2.883 5.482 6 5.47h34.26c-3.125.023-5.744-2.357-6.02-5.47z"/>
                        <g fill="#000" opacity=".3">
                            <path d="M49.24 64.86l-3.71-42.45c-.15-1.904-1.623-3.437-3.52-3.66l-1.53-.2c-2.534-.32-4.5-2.366-4.72-4.91l-.68-7.74c-.129-1.515.383-3.016 1.411-4.137C37.519.643 38.969.003 40.49 0H6.23C4.71.003 3.259.642 2.231 1.763S.691 4.385.82 5.9l.68 7.74c.22 2.544 2.186 4.59 4.72 4.91l1.53.2c1.897.223 3.37 1.756 3.52 3.66L15 64.86c.275 3.105 2.883 5.482 6 5.47h34.26c-3.125.023-5.744-2.357-6.02-5.47z" transform="translate(0 151)"/>
                        </g>
                        <path fill="#A2A2A2" d="M143.52 162.78c.59-6.664 6.17-11.775 12.86-11.78h-29.83c-6.69 0-12.27 5.115-12.85 11.78l-2.95 33.65h29.83l2.94-33.65z"/>
                        <path fill="#000" d="M143.52 162.78c.59-6.664 6.17-11.775 12.86-11.78h-29.83c-6.69 0-12.27 5.115-12.85 11.78l-2.95 33.65h29.83l2.94-33.65z" opacity=".3"/>
                        <path fill="#263238" d="M57.64 221.33h7v17.6c0 .955-.775 1.73-1.73 1.73h-2.53c-1.508 0-2.73-1.222-2.73-2.73v-16.6h-.01zM146 221.33h7v17.6c0 .955-.775 1.73-1.73 1.73h-2.53c-1.508 0-2.73-1.222-2.73-2.73v-16.6H146zM22.7 221.33h7v17.6c0 .955-.775 1.73-1.73 1.73h-2.53c-1.508 0-2.73-1.222-2.73-2.73v-16.6h-.01zM111.09 221.33h7v17.6c0 .955-.775 1.73-1.73 1.73h-2.53c-1.508 0-2.73-1.222-2.73-2.73v-16.6h-.01z"/>
                        <path fill="#A2A2A2" d="M75.39 176.25H63.07c-2.995 0-5.424 2.425-5.43 5.42V191c0 1.44.572 2.82 1.591 3.836 1.019 1.017 2.4 1.587 3.839 1.584h12.32v-20.17z"/>
                        <path fill="#000" d="M75.39 176.25H63.07c-2.995 0-5.424 2.425-5.43 5.42V191c0 1.44.572 2.82 1.591 3.836 1.019 1.017 2.4 1.587 3.839 1.584h12.32v-20.17z" opacity=".3"/>
                        <rect width="70.19" height="20.18" x="70.39" y="176.25" fill="#A2A2A2" rx="5.42"/>
                        <path fill="#A2A2A2" d="M169.63 151h-13.25c-6.69.005-12.27 5.116-12.86 11.78l-2.94 33.65h-71l-2.94-33.65c-.592-6.68-6.195-11.796-12.9-11.78H40.49c-1.52.003-2.971.642-3.999 1.763s-1.54 2.622-1.411 4.137l.68 7.74c.22 2.544 2.186 4.59 4.72 4.91l1.53.2c1.897.223 3.37 1.756 3.52 3.66l3.71 42.45c.275 3.105 2.883 5.482 6 5.47h99.7c3.117.012 5.725-2.365 6-5.47l3.71-42.45c.15-1.904 1.623-3.437 3.52-3.66l1.53-.2c2.534-.32 4.5-2.366 4.72-4.91l.68-7.74c.133-1.527-.386-3.038-1.428-4.162-1.041-1.124-2.51-1.755-4.042-1.738z"/>
                        <path fill="#000" d="M169.63 151h-13.25c-6.69.005-12.27 5.116-12.86 11.78l-2.94 33.65h-71l-2.94-33.65c-.592-6.68-6.195-11.796-12.9-11.78H40.49c-1.52.003-2.971.642-3.999 1.763s-1.54 2.622-1.411 4.137l.68 7.74c.22 2.544 2.186 4.59 4.72 4.91l1.53.2c1.897.223 3.37 1.756 3.52 3.66l3.71 42.45c.275 3.105 2.883 5.482 6 5.47h99.7c3.117.012 5.725-2.365 6-5.47l3.71-42.45c.15-1.904 1.623-3.437 3.52-3.66l1.53-.2c2.534-.32 4.5-2.366 4.72-4.91l.68-7.74c.133-1.527-.386-3.038-1.428-4.162-1.041-1.124-2.51-1.755-4.042-1.738z" opacity=".1"/>
                        <path fill="#FAB27B" d="M172.68 232.54L181.66 229.24 183.71 236.94 175.74 239.5z"/>
                        <path fill="#407BFF" d="M186 237.12c-.095.014-.188-.034-.23-.12-.06-.076-.06-.184 0-.26.12-.13 2.76-3.05 4.46-3.13.314-.02.622.084.86.29.325.22.46.63.33 1-.22.62-1.35 1.22-2.51 1.6-.949.295-1.923.503-2.91.62zm.62-.53c1.81-.35 4.16-1.13 4.39-1.87 0-.1.05-.25-.2-.47-.14-.137-.336-.2-.53-.17-.15.006-.298.033-.44.08-1.21.603-2.295 1.427-3.2 2.43h-.02z"/>
                        <path fill="#407BFF" d="M185.9 237.15c-.08-.023-.142-.088-.16-.17 0-.12-.6-2.72.27-4.08.25-.4.65-.68 1.11-.78.63-.13.92.11 1 .36.54 1-1 3.73-2 4.59-.03.008-.06.008-.09 0-.033.04-.079.069-.13.08zm1.21-4.56c-.28.09-.518.278-.67.53-.44 1.028-.55 2.168-.31 3.26.93-1.06 1.89-3.12 1.62-3.73 0-.06-.11-.21-.52-.11h-.12v.05z"/>
                        <path fill="#263238" d="M184.65 236.13l-10.18 3.31c-.383.125-.629.499-.59.9l.85 8.88c.033.378.215.727.506.971.29.244.666.362 1.044.329.102-.008.203-.029.3-.06 3.65-1.25 6.85-2.52 11.42-4 5.39-1.75 4.23-.66 10.6-2.63 3.84-1.2 3.12-5.76 1.44-5.45-7.72 1.48-9.22-.51-12.94-2.23-.786-.312-1.66-.319-2.45-.02z"/>
                        <path fill="#000" d="M181.66 229.24L172.68 232.54 173.97 235.47 182.53 232.5z" opacity=".1"/>
                        <path fill="#263238" d="M72.34 45.65s-.65-12 16.77-12.32c17.42-.32 15.44 13.42 14.07 17.68-1.37 4.26 5.11 9.92 5.11 9.92s-4.08.08-5.42-2.09c-1.34-2.17 4.12 6 2.92 11.55-1.2 5.55-3.34 11-.37 15.47 0 0-5.34-2.59-5.13-7.69 0 0 .4 4.21-3.81 3.25s-16.19-5-24.14-2.74c-3.93 1.13-5.38-.92-5.65-3.61-.27-2.69-1.21-6.8-1-1.25.03.898.121 1.794.27 2.68 0 0-7-5-2-11 1.49-1.83 5.46-4.17 5.46-7.69 0-3.52-2.18-8.08 2.92-12.16z"/>
                        <path fill="#263238" d="M73.79 46.62s-3.58-3-1.22-8.7c0 0-6.08 7.84 2.17 10.2l-.95-1.5z"/>
                        <path fill="#FAB27B" d="M143.49 114.86s-24.71 17.4-31 11.47c-6.29-5.93-11-21.53-11-21.53l10.7-5.2 5.85 14.55c.583 1.433 2.203 2.139 3.65 1.59l18.66-6.54c.097-2.26.698-4.471 1.76-6.47 1.05-1.8 3.33-2.73 4.74-4.26 3.7-4 2.89 1.87 2.89 1.87l1 7.15c.08.608-.018 1.226-.28 1.78l-1.32 2.73c-.378.81-1.084 1.422-1.94 1.68l-3.71 1.18z"/>
                        <path fill="#263238" d="M100.14 104s-5.43-13.77-.86-20.39c4.57-6.62 14.43 13.11 14.43 13.11l.84.43 1.38 2.56s-9.93 3.76-14.7 7.89l-1.5-3.17.41-.43z"/>
                        <g fill="#FFF" opacity=".2">
                            <path d="M3.14 22S-2.29 8.23 2.28 1.61c4.57-6.62 14.43 13.11 14.43 13.11l.84.43 1.38 2.56S9 21.47 4.23 25.6l-1.5-3.17.41-.43z" transform="translate(97 82)"/>
                        </g>
                        <path fill="#096449" d="M93.905 152.089s59.418-8.08 67.726 4.914c8.308 12.993 23.255 78.647 23.255 78.647l-12.11 4.957s-20.16-39.646-26.256-64.377l-14.71-.644-40.343 3.165s-16.32-19.56 2.438-26.662z"/>
                        <path fill="#263238" d="M55.94 94.86c.22 5.87 4.91 16.69 6.76 27.1 1.466 8.175 2.192 16.465 2.17 24.77 0 0 31.72 8.07 46.23-.09-1.393-7.32-2.275-14.728-2.64-22.17-.77-16.28-.44-36.25-4.06-40.29-6.3-7-20.2-7.64-33.59-6.71-13.39.93-15.08 11.67-14.87 17.39z"/>
                        <g fill="#FFF" opacity=".1">
                            <path d="M.94 17.86c.22 5.87 4.91 16.69 6.76 27.1 1.466 8.175 2.192 16.465 2.17 24.77 0 0 31.72 8.07 46.23-.09-1.393-7.32-2.275-14.728-2.64-22.17-.77-16.28-.44-36.25-4.06-40.29C43.1.18 29.2-.46 15.81.47 2.42 1.4.73 12.14.94 17.86z" transform="translate(55 77)"/>
                        </g>
                        <path fill="#FAB27B" d="M52.09 98.68s-5.58 16.63-3.79 25.71c1.79 9.08 35.16 9.84 35.16 9.84s4.71 1.45 7.22 1c2.138-.135 4.284.064 6.36.59.876.19 1.786-.11 2.38-.78l1.52-1.69c.576-.64.784-1.531.55-2.36-.65-2.31-2.28-6.67-5.25-6.53-4 .19-12 3.9-12 3.9L63 120.84c-.78-.189-1.452-.682-1.865-1.37-.413-.688-.534-1.513-.335-2.29l3.92-16.39-12.63-2.11z"/>
                        <path fill="#263238" d="M49.65 98.08S54.4 81.5 63.32 78.62c8.92-2.88 4 22.36 4 22.36l.47 1-.54 3.35s-11.85-3.57-19.19-3.14l.86-4 .73-.11z"/>
                        <g fill="#FFF" opacity=".2">
                            <path d="M1.65 20.08S6.4 3.5 15.32.62c8.92-2.88 4 22.36 4 22.36l.47 1-.54 3.35S7.4 23.76.06 24.19l.86-4 .73-.11z" transform="translate(48 78)"/>
                        </g>
                        <path fill="#FAB27B" d="M94.87 78.65l-.6-.19c-5.31-1.8-4.83-5.58-3.6-9.28l-8.56-8.73c.54 5 1.11 16.51-3.1 16.59l1.79 1.52 3 3.57 7.48 7.56 1.08-.21L94.15 88l1.44-3.82-.72-5.53z"/>
                        <path fill="#FFF" d="M80.08 76.68s8 6.2 11.33 12.49c1.258-1.967 2.013-4.213 2.2-6.54.06-2.21-1.85-4.11-1.85-5.69l3.76 1.59s6.16 9.51 3.44 14.86c0 0-1.89-4.77-6.58-2.86-.655.352-1.462.243-2-.27-.23-.269-.55-.446-.9-.5-1.27-.21-4.12-.16-6.55 3.68 0 0-1.71-11-6.23-16.36l3.38-.4z"/>
                        <path fill="#000" d="M85.62 64.05l5.09 5.17c-.308.858-.542 1.742-.7 2.64-2-.48-5-2.61-5-4.8.027-1.031.233-2.05.61-3.01z" opacity=".2"/>
                        <path fill="#FAB27B" d="M77.75 52.75c2.07 7.91 2.77 11.3 7.62 14.61 7.3 5 16.56.72 16.91-7.65.3-7.53-3.13-19.19-11.59-20.84-3.792-.758-7.705.502-10.342 3.33-2.637 2.829-3.62 6.82-2.598 10.55z"/>
                        <path fill="#263238" d="M91.14 52.48c.13.64.58 1.1 1 1 .42-.1.67-.67.53-1.33s-.57-1.11-1-1c-.43.11-.67.67-.53 1.33zM98.51 51c.13.65.58 1.1 1 1 .42-.1.67-.67.54-1.33s-.57-1.11-1-1c-.43.11-.67.7-.54 1.33z"/>
                        <path fill="#263238" d="M98.87 49.77l1.48-.76s-.57 1.38-1.48.76z"/>
                        <path fill="#ED893E" d="M96 52.65c.874 1.373 1.93 2.621 3.14 3.71-.577.61-1.391.94-2.23.9L96 52.65z"/>
                        <path fill="#263238" d="M86.71 50c-.053.009-.107.009-.16 0-.073-.044-.126-.115-.146-.197-.021-.083-.008-.17.036-.243.614-1.073 1.71-1.781 2.94-1.9.178 0 .325.142.33.32.006.173-.127.32-.3.33-1.014.114-1.913.704-2.42 1.59-.071.077-.176.115-.28.1zM100.56 47.34c-.06-.006-.117-.023-.17-.05-.87-.52-1.938-.591-2.87-.19-.075.042-.165.052-.247.028-.083-.025-.153-.082-.193-.158-.08-.163-.012-.36.15-.44 1.127-.502 2.428-.428 3.49.2.157.08.22.273.14.43-.06.11-.175.178-.3.18zM91.5 51.22l1.48-.76s-.57 1.38-1.48.76zM97.15 62.06c.312-.07.617-.17.91-.3.1-.033.153-.14.12-.24-.048-.089-.156-.128-.25-.09-1.504.653-3.228.556-4.65-.26-.055-.053-.135-.068-.205-.039-.07.03-.116.097-.117.173 0 .076.043.145.112.176 1.226.737 2.698.946 4.08.58z"/>
                        <path fill="#263238" d="M85 41.52s2.23 2.35 8.83 4.06l-1.89-2.67s7.26 3.58 11.89 2.67c0 0-6.85-13.88-21.21-8.14 0 0-15.2 14-6.86 30 0 0 4.5 2.6 5.44-2.19 0 0 2 3.22 0 5.19 2.46-2.187 3.38-5.628 2.34-8.75-1.73-5.46-.79-7.8 1.46-12.24 1.354-2.47 1.354-5.46 0-7.93z"/>
                        <path fill="#FAB27B" d="M144.28 237.85L147.1 246.14 155.01 243.65 153.73 234.54z"/>
                        <path fill="#407BFF" d="M157.9 243.63c-.098.005-.19-.05-.23-.14-.032-.091-.008-.192.06-.26.13-.12 3-2.76 4.75-2.67.314.01.613.143.83.37.289.246.382.652.23 1-.28.6-1.46 1.09-2.65 1.35-.984.206-1.985.323-2.99.35zm.67-.46c1.83-.17 4.24-.72 4.55-1.44 0-.09.07-.24-.16-.49-.13-.144-.316-.224-.51-.22-.15-.015-.3-.015-.45 0-1.27.493-2.433 1.222-3.43 2.15z"/>
                        <path fill="#407BFF" d="M157.78 243.65c-.082-.03-.14-.103-.15-.19 0-.12-.33-2.76.67-4 .288-.371.713-.61 1.18-.66.64-.08.9.19 1 .45.45 1-1.4 3.61-2.43 4.37-.033.01-.067.01-.1 0-.05.035-.112.046-.17.03zm1.64-4.42c-.288.062-.543.225-.72.46-.532.98-.749 2.102-.62 3.21 1-1 2.18-2.92 2-3.55 0-.06-.09-.22-.51-.16h-.13l-.02.04z"/>
                        <path fill="#263238" d="M156.63 242.51l-10.46 2.3c-.393.084-.675.429-.68.83v8.93c-.003.38.145.744.412 1.014.266.27.629.423 1.008.426h.3c3.76-.89 7.06-1.83 11.76-2.86 5.54-1.21 4.28-.24 10.81-1.58 3.93-.81 3.67-5.43 2-5.28-7.82.71-9.12-1.41-12.66-3.49-.763-.41-1.653-.513-2.49-.29z"/>
                        <path fill="#000" d="M153.73 234.54L144.28 237.85 145.55 241.59 154.28 238.44z" opacity=".1"/>
                        <path fill="#06976D" d="M66.105 146.945s-2.817 33.043 12.189 33.953c15.005.911 47.33-7.791 47.33-7.791s1.455 27.435 9.3 48.197c7.847 20.763 8.758 25.021 8.758 25.021l13.213-4.806s-5.029-73.976-14.708-86.344c-11.871-15.187-66.833-6.222-66.833-6.222l-9.249-2.008z"/>
                        <path fill="#FAB27B" d="M78.1 58.45c.74 1.398 2 2.447 3.51 2.92 2 .6 3-1.18 2.53-3.1-.47-1.72-2.08-4.11-4.11-3.88-1.474.216-2.494 1.586-2.28 3.06.048.353.167.694.35 1z"/>
                        <path fill="#A2A2A2" d="M141.39 90.26l6.76 1.21c.269.047.504.209.644.443s.171.518.086.777l-4.27 15.51c-.147.574-.703.945-1.29.86l-6.77-1.2c-.267-.05-.5-.212-.637-.446-.138-.234-.168-.516-.083-.774l4.26-15.52c.155-.573.712-.941 1.3-.86z"/>
                        <path fill="#FFF" d="M141.39 90.26l6.76 1.21c.269.047.504.209.644.443s.171.518.086.777l-4.27 15.51c-.147.574-.703.945-1.29.86l-6.77-1.2c-.267-.05-.5-.212-.637-.446-.138-.234-.168-.516-.083-.774l4.26-15.52c.155-.573.712-.941 1.3-.86z" opacity=".5"/>
                        <path fill="#A2A2A2" d="M136.55 107.86l6.77 1.2c.208.031.42 0 .61-.09l-6.38-1.14c-.26-.064-.482-.229-.62-.458-.137-.229-.176-.503-.11-.762l4.27-15.51c.099-.346.349-.63.68-.77l-.38-.07c-.588-.081-1.145.287-1.3.86l-4.26 15.52c-.085.258-.055.54.083.774.138.234.37.396.637.446z"/>
                        <path fill="#263238" d="M143 91.73c-.03.332-.298.591-.63.61-.152.007-.3-.053-.404-.165-.104-.112-.154-.263-.136-.415.03-.332.298-.591.63-.61.152-.007.3.053.404.165.104.112.154.263.136.415z"/>
                        <path fill="#407BFF" d="M113.11 139.31c-12.06 0-14.31-22.24-15.39-32.95-.16-1.58-.3-3-.44-3.91-1.06-7.26-6.16-18.6-9.28-24-3.21-5.53-6.69-16.08-6.72-16.19l.33-.11c0 .11 3.5 10.62 6.69 16.12 3.19 5.5 8.26 16.8 9.33 24.1.13 1 .27 2.34.44 3.93 1.07 10.6 3.29 32.63 15 32.63h.07c13.52-.11 24.5-30.62 24.61-30.92l.33.11c-1.991 5.355-4.41 10.542-7.23 15.51-6 10.34-11.92 15.6-17.7 15.65l-.04.03z"/>
                        <path fill="#FFF" d="M81.65 58.68c.2.61.81 1 .2 1.16-.406.165-.87.09-1.203-.196-.332-.286-.477-.733-.376-1.16.102-.426.433-.76.859-.864.61-.2.32.45.52 1.06z"/>
                        <path fill="#FFF" d="M80.36 58.83s-.36 0 .93 4l.52-.17s-1-2.85-.31-3.16c-.268-.374-.682-.618-1.14-.67z"/>
                        <path fill="#407BFF" d="M95.13 75.59c.668-2.237.978-4.566.92-6.9l-.34.13c.035 2.257-.276 4.506-.92 6.67-1.62 5.49 2 24.15 2.12 24.94l.34-.07c-.04-.19-3.72-19.36-2.12-24.77zM136.98 111.52L138.3 108.1 137.72 107.93 136.41 111.31z"/>
                        <path fill="#000" d="M136.98 111.52L138.3 108.1 137.72 107.93 136.41 111.31z" opacity=".3"/>
                        <path fill="#A2A2A2" d="M98.28 146.58L130.39 146.58 145.36 119.66 127.81 119.66 117.21 138.4 112.86 146.03 99.54 145.61z"/>
                        <path fill="#FFF" d="M98.28 146.58L130.39 146.58 145.36 119.66 127.81 119.66 117.21 138.4 112.86 146.03 99.54 145.61z" opacity=".6"/>
                        <path fill="#A2A2A2" d="M127.33 119.66l-14.71 25.5H81.51v.65c.005.423.347.765.77.77h31.34l15-26.92h-1.29z"/>
                        <path fill="#471D87" d="M125.3.13h-36c-1.675.013-3.05 1.328-3.14 3l-.87 16.59c-.053.781.222 1.549.76 2.118.537.57 1.287.89 2.07.882h12.17l5.49 6.69 6.19-6.69h12.17c1.673-.018 3.045-1.33 3.14-3l.87-16.59c.056-.785-.22-1.558-.763-2.13-.542-.57-1.3-.886-2.087-.87z"/>
                        <path fill="#FFF" d="M99.49 11.31c0-.735.595-1.33 1.33-1.33.735 0 1.33.595 1.33 1.33 0 .735-.595 1.33-1.33 1.33-.732-.005-1.325-.598-1.33-1.33zM105.37 11.31c0-.735.595-1.33 1.33-1.33.735 0 1.33.595 1.33 1.33 0 .735-.595 1.33-1.33 1.33-.732-.005-1.325-.598-1.33-1.33zM111.25 11.31c0-.735.595-1.33 1.33-1.33.735 0 1.33.595 1.33 1.33 0 .735-.595 1.33-1.33 1.33-.732-.005-1.325-.598-1.33-1.33z"/>
                    </g>
                </g>
            </g>
        </g>
    </g>
</svg>
